# xmcd
#
# Track frame offsets: 
#        150
#        4403
#        31505
#        47542
#        65240
#        84285
#        101684
#        123059
#        145167
#        163248
#        178557
#        198367
#        220655
#        242244
#        268156
#        283465
#        301754
#
# Disc length: 4340 seconds
#
# Revision: 1
# Processed by: cddbd v1.5.2PL0 Copyright (c) Steve Scherf et al.
# Submitted via: ExactAudioCopy v1.0b3
#
DISCID=ef10f211
DTITLE=AKB48 - team B 4th stage アイドルの夜明け ～studio recordings コレクション～ Di
DTITLE=sc 2 KICS-1873-74
DYEAR=2013
DGENRE=JPop
TTITLE0=overture (オリジナル・カラオケ)
TTITLE1=アイドルの夜明け (オリジナル・カラオケ)
TTITLE2=みなさんもご一緒に (オリジナル・カラオケ)
TTITLE3=春一番が吹く頃 (オリジナル・カラオケ)
TTITLE4=拳の正義 (オリジナル・カラオケ)
TTITLE5=残念少女 (オリジナル・カラオケ)
TTITLE6=口移しのチョコレート (オリジナル・カラオケ)
TTITLE7=片思いの対角線 (オリジナル・カラオケ)
TTITLE8=天国野郎 (オリジナル・カラオケ)
TTITLE9=愛しきナターシャ (オリジナル・カラオケ)
TTITLE10=女子高生はやめられない (オリジナル・カラオケ)
TTITLE11=好きと言えば良かった (オリジナル・カラオケ)
TTITLE12=そばかすのキス (オリジナル・カラオケ)
TTITLE13=タンポポの決心 (オリジナル・カラオケ)
TTITLE14=B Stars (オリジナル・カラオケ)
TTITLE15=横須賀カーブ (オリジナル・カラオケ)
TTITLE16=アリガトウ (オリジナル・カラオケ)
EXTD=YEAR: 2009
EXTT0=
EXTT1=
EXTT2=
EXTT3=
EXTT4=
EXTT5=
EXTT6=
EXTT7=
EXTT8=
EXTT9=
EXTT10=
EXTT11=
EXTT12=
EXTT13=
EXTT14=
EXTT15=
EXTT16=
PLAYORDER=
